<svg
  width="250"
  height="249"
  viewBox="0 0 250 249"
  fill="none"
  xmlns="http://www.w3.org/2000/svg"
>
  <g clip-path="url(#clip0_3_8)">
    <path
      class="plettro1"
      d="M143.501 244.927C131.999 244.927 118.808 242.443 104.426 237.483C76.7892 227.935 47.6025 209.929 24.3842 188.085C6.4852 171.251 -1.61977 152.041 0.270967 131.003C2.04196 111.22 12.5041 93.8185 20.962 82.701C31.3358 69.075 42.8567 59.1361 50.1865 54.3651C61.9217 46.2916 103.524 25.8716 140.148 37.1846C160.259 43.4114 174.919 58.1655 183.717 81.0434C195.143 110.772 200.784 144.572 199.196 173.778C197.526 204.616 188.185 227.135 172.908 237.193C172.76 237.293 172.602 237.375 172.435 237.439C164.854 242.437 155.041 244.927 143.501 244.927ZM117.169 39.1068C90.6988 39.1068 64.1087 51.0815 53.0919 58.6445L53.0352 58.6823C38.798 67.9343 8.43897 97.8899 5.42008 131.463C3.6806 150.843 11.2499 168.648 27.9136 184.316C50.6529 205.675 79.1653 223.271 106.14 232.593C133.757 242.141 156.522 242.179 170.236 232.706C170.395 232.594 170.566 232.501 170.746 232.429C184.215 223.063 192.477 202.177 194.034 173.513C195.578 145.013 190.057 111.989 178.908 82.9153C170.715 61.6003 157.165 47.8798 138.642 42.1509C131.677 40.065 124.439 39.0389 117.169 39.1068V39.1068Z"
      fill="currentColor"
    />
    <path
      class="plettro2"
      d="M106.14 232.788C94.348 232.788 84.3334 230.223 76.6633 225.099C76.5023 225.032 76.3482 224.95 76.2032 224.853C60.9638 214.675 51.7748 192.08 50.3253 161.261C48.9513 132.011 54.8945 98.2366 66.636 68.6843C75.6675 45.7685 90.5476 31.0775 110.854 25.0271C129.913 19.3549 149.961 22.6259 163.423 26.3758C179.942 30.9703 193.442 37.9976 200.608 43.0459C212.425 50.8987 246.71 81.8123 249.811 120.056C251.513 141.112 243.237 160.259 225.231 176.961C201.692 198.603 172.291 216.351 144.635 225.666C130.461 230.418 117.478 232.788 106.14 232.788ZM78.4091 220.088C78.588 220.16 78.7573 220.253 78.9132 220.366C92.5203 229.933 115.26 230.072 142.946 220.757C169.965 211.668 198.66 194.318 221.683 173.16C238.479 157.593 246.206 139.864 244.63 120.472C241.914 86.9362 211.857 56.7159 197.696 47.3631L197.633 47.3189C183.767 37.506 144.692 20.3696 112.335 30.0124C93.6295 35.5837 79.8775 49.2412 71.4511 70.6129C59.9743 99.5475 54.1635 132.503 55.4996 161.041C56.842 189.704 64.9659 210.616 78.4028 220.088H78.4091Z"
      fill="currentColor"
    />
    <path
      class="plettro3"
      d="M128.526 248.487C105.629 248.487 68.4195 243.401 43.8714 220.29C26.5459 203.979 19.0082 181.713 21.4662 154.114C24.6174 118.096 35.6908 80.7976 51.8945 51.7937C68.7662 21.567 89.1862 3.40333 109.449 0.548316C109.56 0.515794 109.674 0.490532 109.789 0.472687C130.152 -2.59661 154.946 9.34656 179.62 34.0963C203.065 57.6109 223.851 90.4908 236.651 124.304C246.515 150.434 245.21 174.093 232.775 194.589C221.141 213.773 201.925 226.227 187.851 233.292C170.545 241.983 153.913 246.345 144.1 247.529C138.937 248.215 133.733 248.535 128.526 248.487V248.487ZM111.15 5.50206C111.009 5.54686 110.863 5.5785 110.715 5.59659C91.9214 7.96002 72.6359 25.254 56.407 54.3021C40.55 82.6632 29.6972 119.217 26.6216 154.555C24.3086 180.509 31.3043 201.358 47.4197 216.521C75.3207 242.784 124.108 245.305 143.368 242.412H143.444C162.547 240.111 208.441 224.765 228.351 191.916C239.916 172.839 241.082 150.711 231.811 126.144C219.263 92.9929 198.9 60.781 175.952 37.7581C152.721 14.4453 129.743 3.01258 111.15 5.50206Z"
      fill="currentColor"
    />
  </g>
  <defs>
    <clipPath id="clip0_3_8">
      <rect width="250" height="248.487" fill="white" />
    </clipPath>
  </defs>
</svg>
